# xmcd
#
# Track frame offsets:
#	150
#	12190
#	26140
#	38707
#	54279
#	67355
#	80055
#	96451
#	107564
#	122353
#	135226
#	150012
#	163804
#	178120
#	190509
#	204127
#	218989
#	231486
#
# Disc length: 3230 seconds
#
# Revision: 0
# Processed by: cddbd v1.5.2PL0 Copyright (c) Steve Scherf et al.
# Submitted via: EasyCDDAExtractor 16.0.6.1
#
DISCID=eb0c9c12
DTITLE=Συλλογικός δίσκος - Τα ρεμπέτικα της εργατιάς
DYEAR=2001
DGENRE=Ρεμπέτικη
TTITLE0=Ιακωβίδης Αγάθωνας-Τσιρίδου Κατερίνα - Φάμπρικες [1950, Βασίλη Τσιτσάν
TTITLE0=η]
TTITLE1=Γκολές Μπάμπης - Ο εργάτης [1948, Απόστολου Καλδάρα]
TTITLE2=Ιακωβίδης Αγάθωνας-Τσιρίδου Κατερίνα - Ψαροπούλα [1947, Δημήτρη Γκόγκο
TTITLE2=υ]
TTITLE3=Γκολές Μπάμπης-Γλυκερία - Μαύρη φτώχεια [1952, Μπάμπη Μπακάλη]
TTITLE4=Ιακωβίδης Αγάθωνας-Τσιρίδου Κατερίνα - Φτωχόπαιδο με γνώρισες [1953, Β
TTITLE4=ασίλη Τσιτσάνη]
TTITLE5=Γκολές Μπάμπης - Ο ψαράς [1946, Γιώργου Μητσάκη]
TTITLE6=Ιακωβίδης Αγάθωνας - Ο θερμαστής [1934, Γιώργου Μπάτη]
TTITLE7=Γλυκερία - Φτώχεια μαζί με την τιμή [1933, Παναγιώτη Τούντα]
TTITLE8=Ιακωβίδης Αγάθωνας - Εργάτης τιμημένος [1932, Παναγιώτη Τούντα]
TTITLE9=Γκολές Μπάμπης - Μέσ' στην αγορά [1938, Κώστα Σκαρβέλη]
TTITLE10=Ιακωβίδης Αγάθωνας - Το τσαγκαράκι [1931, Κώστα Σκαρβέλη]
TTITLE11=Γκολές Μπάμπης-Ιακωβίδης Αγάθωνας - Τα ψαραδάκια [1940, Στέλιου Χρυσί
TTITLE11=νη]
TTITLE12=Ιακωβίδης Αγάθωνας - Είμαι τεχνίτης ξακουστός [1940, Κώστα Σκαρβέλη]
TTITLE13=Γκολές Μπάμπης - Θαλασσινό μεράκι [1939, Σπύρου Περιστέρη-Μίνωα Μάτσα
TTITLE13=]
TTITLE14=Ιακωβίδης Αγάθωνας - Οι φωνογραφιτζήδες [1936, Γιώργου Μπάτη]
TTITLE15=Γκολές Μπάμπης - Εργατοπούλες [2001, Μπάμπη Γκολέ]
TTITLE16=Ιακωβίδης Αγάθωνας - Καπνουλούδες [1936, Δημήτρη Γκόγκου]
TTITLE17=Γκολές Μπάμπης - Οι σφουγγαράδες [1935, Γιώργου Μπάτη]
EXTD=
EXTT0=
EXTT1=
EXTT2=
EXTT3=
EXTT4=
EXTT5=
EXTT6=
EXTT7=
EXTT8=
EXTT9=
EXTT10=
EXTT11=
EXTT12=
EXTT13=
EXTT14=
EXTT15=
EXTT16=
EXTT17=
PLAYORDER=
